massMuscle_states
version=1
nRows=23
nColumns=15
inDegrees=yes

# SIMM Motion File Header:
name massMuscle_states
datacolumns 15
datarows 23
otherdata 1
range 2.92267149 2.92589968
endheader
time	massToGround_xRotation	massToGround_yRotation	massToGround_zRotation	massToGround_xTranslation	massToGround_yTranslation	massToGround_zTranslation	massToGround_xRotation_u	massToGround_yRotation_u	massToGround_zRotation_u	massToGround_xTranslation_u	massToGround_yTranslation_u	massToGround_zTranslation_u	muscle.activation	muscle.fiber_length
      2.92267149	      0.00000000	      0.00000000	      0.00000000	      0.00000000	      0.04331137	      0.00000000	      0.00000000	      0.00000000	      0.00000000	      0.00000000	     -0.83427089	      0.00000000	      0.05284622	      0.35441263
      2.92281823	      0.00000000	      0.00000000	      0.00000000	      0.00000000	      0.04318899	      0.00000000	      0.00000000	      0.00000000	      0.00000000	      0.00000000	     -0.83372752	      0.00000000	      0.05280021	      0.35451607
      2.92296496	      0.00000000	      0.00000000	      0.00000000	      0.00000000	      0.04306669	      0.00000000	      0.00000000	      0.00000000	      0.00000000	      0.00000000	     -0.83315414	      0.00000000	      0.05275419	      0.35465219
      2.92311170	      0.00000000	      0.00000000	      0.00000000	      0.00000000	      0.04294448	      0.00000000	      0.00000000	      0.00000000	      0.00000000	      0.00000000	     -0.83259856	      0.00000000	      0.05270817	      0.35475648
      2.92325843	      0.00000000	      0.00000000	      0.00000000	      0.00000000	      0.04282235	      0.00000000	      0.00000000	      0.00000000	      0.00000000	      0.00000000	     -0.83201382	      0.00000000	      0.05266216	      0.35489235
      2.92340517	      0.00000000	      0.00000000	      0.00000000	      0.00000000	      0.04270031	      0.00000000	      0.00000000	      0.00000000	      0.00000000	      0.00000000	     -0.83144730	      0.00000000	      0.05261614	      0.35499567
      2.92355191	      0.00000000	      0.00000000	      0.00000000	      0.00000000	      0.04257835	      0.00000000	      0.00000000	      0.00000000	      0.00000000	      0.00000000	     -0.83084972	      0.00000000	      0.05257013	      0.35513318
      2.92369864	      0.00000000	      0.00000000	      0.00000000	      0.00000000	      0.04245647	      0.00000000	      0.00000000	      0.00000000	      0.00000000	      0.00000000	     -0.83027369	      0.00000000	      0.05252412	      0.35523351
      2.92384538	      0.00000000	      0.00000000	      0.00000000	      0.00000000	      0.04233469	      0.00000000	      0.00000000	      0.00000000	      0.00000000	      0.00000000	     -0.82966144	      0.00000000	      0.05247810	      0.35537503
      2.92399211	      0.00000000	      0.00000000	      0.00000000	      0.00000000	      0.04221299	      0.00000000	      0.00000000	      0.00000000	      0.00000000	      0.00000000	     -0.82907801	      0.00000000	      0.05243209	      0.35547298
      2.92413885	      0.00000000	      0.00000000	      0.00000000	      0.00000000	      0.04209138	      0.00000000	      0.00000000	      0.00000000	      0.00000000	      0.00000000	     -0.82845423	      0.00000000	      0.05238608	      0.35561414
      2.92428558	      0.00000000	      0.00000000	      0.00000000	      0.00000000	      0.04196986	      0.00000000	      0.00000000	      0.00000000	      0.00000000	      0.00000000	     -0.82785981	      0.00000000	      0.05234007	      0.35571207
      2.92443232	      0.00000000	      0.00000000	      0.00000000	      0.00000000	      0.04184843	      0.00000000	      0.00000000	      0.00000000	      0.00000000	      0.00000000	     -0.82722438	      0.00000000	      0.05229406	      0.35585291
      2.92457905	      0.00000000	      0.00000000	      0.00000000	      0.00000000	      0.04172709	      0.00000000	      0.00000000	      0.00000000	      0.00000000	      0.00000000	     -0.82661895	      0.00000000	      0.05224805	      0.35595087
      2.92472579	      0.00000000	      0.00000000	      0.00000000	      0.00000000	      0.04160584	      0.00000000	      0.00000000	      0.00000000	      0.00000000	      0.00000000	     -0.82597195	      0.00000000	      0.05220204	      0.35609116
      2.92487253	      0.00000000	      0.00000000	      0.00000000	      0.00000000	      0.04148469	      0.00000000	      0.00000000	      0.00000000	      0.00000000	      0.00000000	     -0.82535525	      0.00000000	      0.05215603	      0.35618926
      2.92501926	      0.00000000	      0.00000000	      0.00000000	      0.00000000	      0.04136363	      0.00000000	      0.00000000	      0.00000000	      0.00000000	      0.00000000	     -0.82469653	      0.00000000	      0.05211002	      0.35632906
      2.92516600	      0.00000000	      0.00000000	      0.00000000	      0.00000000	      0.04124266	      0.00000000	      0.00000000	      0.00000000	      0.00000000	      0.00000000	     -0.82406856	      0.00000000	      0.05206401	      0.35642732
      2.92531273	      0.00000000	      0.00000000	      0.00000000	      0.00000000	      0.04112179	      0.00000000	      0.00000000	      0.00000000	      0.00000000	      0.00000000	     -0.82339817	      0.00000000	      0.05201801	      0.35656645
      2.92545947	      0.00000000	      0.00000000	      0.00000000	      0.00000000	      0.04100102	      0.00000000	      0.00000000	      0.00000000	      0.00000000	      0.00000000	     -0.82275865	      0.00000000	      0.05197200	      0.35666494
      2.92560620	      0.00000000	      0.00000000	      0.00000000	      0.00000000	      0.04088034	      0.00000000	      0.00000000	      0.00000000	      0.00000000	      0.00000000	     -0.82207641	      0.00000000	      0.05192599	      0.35680351
      2.92575294	      0.00000000	      0.00000000	      0.00000000	      0.00000000	      0.04075976	      0.00000000	      0.00000000	      0.00000000	      0.00000000	      0.00000000	     -0.82142539	      0.00000000	      0.05187999	      0.35690224
      2.92589968	      0.00000000	      0.00000000	      0.00000000	      0.00000000	      0.04063928	      0.00000000	      0.00000000	      0.00000000	      0.00000000	      0.00000000	     -0.82073142	      0.00000000	      0.05183398	      0.35703998
